<svg xmlns="http://www.w3.org/2000/svg" xmlns:xlink="http://www.w3.org/1999/xlink" width="500" zoomAndPan="magnify" viewBox="0 0 375 374.999991" height="500" preserveAspectRatio="xMidYMid meet" version="1.0"><defs><clipPath id="b93f0a55b5"><path d="M 224.03125 80.105469 L 375 80.105469 L 375 375 L 224.03125 375 Z M 224.03125 80.105469 " clip-rule="nonzero"/></clipPath></defs><rect x="-37.5" width="450" fill="#ffffff" y="-37.499999" height="449.999989" fill-opacity="1"/><rect x="-37.5" width="450" fill="#172554" y="-37.499999" height="449.999989" fill-opacity="1"/><g clip-path="url(#b93f0a55b5)"><path fill="#172554" d="M 866.335938 401.257812 C 866.335938 406.515625 866.207031 411.765625 865.949219 417.015625 C 865.6875 422.265625 865.304688 427.503906 864.789062 432.738281 C 864.273438 437.96875 863.628906 443.183594 862.859375 448.378906 C 862.085938 453.578125 861.1875 458.757812 860.164062 463.910156 C 859.136719 469.066406 857.988281 474.191406 856.710938 479.292969 C 855.433594 484.390625 854.03125 489.453125 852.503906 494.484375 C 850.980469 499.511719 849.332031 504.503906 847.5625 509.449219 C 845.789062 514.398438 843.898438 519.300781 841.886719 524.15625 C 839.875 529.011719 837.746094 533.816406 835.5 538.566406 C 833.253906 543.320312 830.890625 548.011719 828.414062 552.648438 C 825.933594 557.285156 823.34375 561.855469 820.644531 566.363281 C 817.941406 570.871094 815.128906 575.308594 812.210938 579.679688 C 809.289062 584.050781 806.265625 588.347656 803.132812 592.566406 C 800.003906 596.789062 796.769531 600.933594 793.4375 604.996094 C 790.101562 609.058594 786.667969 613.035156 783.140625 616.929688 C 779.609375 620.824219 775.988281 624.628906 772.269531 628.347656 C 768.554688 632.0625 764.75 635.6875 760.855469 639.214844 C 756.960938 642.746094 752.980469 646.175781 748.917969 649.511719 C 744.855469 652.847656 740.714844 656.078125 736.492188 659.210938 C 732.269531 662.339844 727.972656 665.367188 723.605469 668.285156 C 719.234375 671.207031 714.796875 674.015625 710.285156 676.71875 C 705.777344 679.421875 701.207031 682.011719 696.570312 684.488281 C 691.9375 686.964844 687.242188 689.328125 682.492188 691.574219 C 677.742188 693.824219 672.9375 695.953125 668.082031 697.964844 C 663.226562 699.976562 658.324219 701.867188 653.375 703.636719 C 648.425781 705.40625 643.4375 707.054688 638.40625 708.582031 C 633.378906 710.105469 628.3125 711.507812 623.214844 712.785156 C 618.117188 714.0625 612.992188 715.214844 607.835938 716.238281 C 602.679688 717.265625 597.503906 718.164062 592.304688 718.933594 C 587.105469 719.707031 581.890625 720.347656 576.660156 720.863281 C 571.429688 721.378906 566.191406 721.765625 560.941406 722.023438 C 555.691406 722.28125 550.4375 722.410156 545.183594 722.410156 C 539.925781 722.410156 534.671875 722.28125 529.421875 722.023438 C 524.175781 721.765625 518.933594 721.378906 513.703125 720.863281 C 508.472656 720.347656 503.257812 719.707031 498.058594 718.933594 C 492.859375 718.164062 487.683594 717.265625 482.527344 716.238281 C 477.375 715.214844 472.246094 714.0625 467.148438 712.785156 C 462.050781 711.507812 456.984375 710.105469 451.957031 708.582031 C 446.925781 707.054688 441.9375 705.40625 436.988281 703.636719 C 432.039062 701.867188 427.136719 699.976562 422.28125 697.964844 C 417.425781 695.953125 412.621094 693.824219 407.871094 691.574219 C 403.121094 689.328125 398.425781 686.964844 393.792969 684.488281 C 389.15625 682.011719 384.585938 679.421875 380.078125 676.71875 C 375.570312 674.015625 371.128906 671.207031 366.757812 668.285156 C 362.390625 665.367188 358.09375 662.339844 353.871094 659.210938 C 349.648438 656.078125 345.507812 652.847656 341.445312 649.511719 C 337.382812 646.175781 333.402344 642.746094 329.507812 639.214844 C 325.613281 635.6875 321.808594 632.0625 318.09375 628.347656 C 314.375 624.628906 310.753906 620.824219 307.222656 616.929688 C 303.695312 613.035156 300.261719 609.058594 296.929688 604.996094 C 293.59375 600.933594 290.359375 596.789062 287.230469 592.566406 C 284.097656 588.347656 281.074219 584.050781 278.152344 579.679688 C 275.234375 575.308594 272.421875 570.871094 269.71875 566.363281 C 267.019531 561.855469 264.429688 557.285156 261.949219 552.648438 C 259.472656 548.011719 257.109375 543.320312 254.863281 538.566406 C 252.617188 533.816406 250.488281 529.011719 248.476562 524.15625 C 246.464844 519.300781 244.574219 514.398438 242.804688 509.449219 C 241.03125 504.503906 239.382812 499.511719 237.859375 494.484375 C 236.332031 489.453125 234.929688 484.390625 233.652344 479.292969 C 232.378906 474.191406 231.226562 469.066406 230.199219 463.910156 C 229.175781 458.757812 228.277344 453.578125 227.503906 448.378906 C 226.734375 443.183594 226.089844 437.96875 225.574219 432.738281 C 225.0625 427.503906 224.675781 422.265625 224.417969 417.015625 C 224.160156 411.765625 224.03125 406.515625 224.03125 401.257812 C 224.03125 396.003906 224.160156 390.75 224.417969 385.5 C 224.675781 380.25 225.0625 375.011719 225.574219 369.78125 C 226.089844 364.550781 226.734375 359.335938 227.503906 354.136719 C 228.277344 348.9375 229.175781 343.757812 230.199219 338.605469 C 231.226562 333.449219 232.378906 328.324219 233.652344 323.222656 C 234.929688 318.125 236.332031 313.0625 237.859375 308.03125 C 239.382812 303.003906 241.03125 298.011719 242.804688 293.066406 C 244.574219 288.117188 246.464844 283.214844 248.476562 278.359375 C 250.488281 273.503906 252.617188 268.699219 254.863281 263.949219 C 257.109375 259.195312 259.472656 254.503906 261.949219 249.867188 C 264.429688 245.234375 267.019531 240.660156 269.71875 236.152344 C 272.421875 231.644531 275.234375 227.207031 278.152344 222.835938 C 281.074219 218.464844 284.097656 214.167969 287.230469 209.949219 C 290.359375 205.726562 293.59375 201.582031 296.929688 197.519531 C 300.261719 193.457031 303.695312 189.480469 307.222656 185.585938 C 310.753906 181.691406 314.375 177.886719 318.09375 174.167969 C 321.808594 170.453125 325.613281 166.828125 329.507812 163.300781 C 333.402344 159.769531 337.382812 156.339844 341.445312 153.003906 C 345.507812 149.667969 349.648438 146.4375 353.871094 143.304688 C 358.09375 140.175781 362.390625 137.148438 366.757812 134.230469 C 371.128906 131.308594 375.570312 128.5 380.078125 125.796875 C 384.585938 123.09375 389.15625 120.503906 393.792969 118.027344 C 398.425781 115.550781 403.121094 113.1875 407.871094 110.941406 C 412.621094 108.691406 417.425781 106.5625 422.28125 104.550781 C 427.136719 102.539062 432.039062 100.648438 436.988281 98.878906 C 441.9375 97.109375 446.925781 95.460938 451.957031 93.933594 C 456.984375 92.410156 462.050781 91.007812 467.148438 89.730469 C 472.246094 88.453125 477.375 87.300781 482.527344 86.277344 C 487.683594 85.25 492.859375 84.351562 498.058594 83.582031 C 503.257812 82.808594 508.472656 82.167969 513.703125 81.652344 C 518.933594 81.136719 524.175781 80.75 529.421875 80.492188 C 534.671875 80.234375 539.925781 80.105469 545.183594 80.105469 C 550.4375 80.105469 555.691406 80.234375 560.941406 80.492188 C 566.191406 80.75 571.429688 81.136719 576.660156 81.652344 C 581.890625 82.167969 587.105469 82.808594 592.304688 83.582031 C 597.503906 84.351562 602.679688 85.25 607.835938 86.277344 C 612.992188 87.300781 618.117188 88.453125 623.214844 89.730469 C 628.3125 91.007812 633.378906 92.410156 638.40625 93.933594 C 643.4375 95.460938 648.425781 97.109375 653.375 98.878906 C 658.324219 100.648438 663.226562 102.539062 668.082031 104.550781 C 672.9375 106.5625 677.742188 108.691406 682.492188 110.941406 C 687.242188 113.1875 691.9375 115.550781 696.570312 118.027344 C 701.207031 120.503906 705.777344 123.09375 710.289062 125.796875 C 714.796875 128.5 719.234375 131.308594 723.605469 134.230469 C 727.972656 137.148438 732.269531 140.175781 736.492188 143.304688 C 740.714844 146.4375 744.855469 149.667969 748.917969 153.003906 C 752.980469 156.339844 756.960938 159.769531 760.855469 163.300781 C 764.75 166.828125 768.554688 170.453125 772.269531 174.167969 C 775.988281 177.886719 779.609375 181.691406 783.140625 185.585938 C 786.667969 189.480469 790.101562 193.457031 793.4375 197.519531 C 796.769531 201.582031 800.003906 205.726562 803.132812 209.949219 C 806.265625 214.167969 809.289062 218.464844 812.210938 222.835938 C 815.128906 227.207031 817.941406 231.644531 820.644531 236.152344 C 823.34375 240.660156 825.933594 245.234375 828.414062 249.867188 C 830.890625 254.503906 833.253906 259.195312 835.5 263.949219 C 837.746094 268.699219 839.875 273.503906 841.886719 278.359375 C 843.898438 283.214844 845.789062 288.117188 847.5625 293.066406 C 849.332031 298.011719 850.980469 303.003906 852.503906 308.03125 C 854.03125 313.0625 855.433594 318.125 856.710938 323.222656 C 857.988281 328.324219 859.136719 333.449219 860.164062 338.605469 C 861.1875 343.757812 862.085938 348.9375 862.859375 354.136719 C 863.628906 359.335938 864.273438 364.550781 864.789062 369.78125 C 865.304688 375.011719 865.6875 380.25 865.949219 385.5 C 866.207031 390.75 866.335938 396.003906 866.335938 401.257812 Z M 866.335938 401.257812 " fill-opacity="1" fill-rule="nonzero"/></g><path fill="#ffffff" d="M 26.519531 186.820312 C 26.519531 186.820312 42.054688 198.117188 54.761719 195.292969 C 54.761719 195.292969 72.414062 182.582031 81.59375 181.878906 C 81.59375 181.878906 103.484375 194.585938 123.960938 183.289062 C 123.960938 183.289062 132.433594 193.882812 132.433594 207.296875 C 131.730469 220.007812 114.78125 229.890625 114.78125 249.664062 C 115.488281 270.140625 124.667969 295.558594 131.023438 313.214844 C 136.671875 331.570312 149.382812 403.59375 64.648438 384.53125 C 112.664062 408.539062 159.972656 379.585938 163.503906 323.804688 C 164.210938 303.328125 176.917969 311.09375 177.625 327.335938 C 182.570312 464.320312 -38.441406 450.902344 34.285156 287.085938 C 45.582031 261.667969 42.054688 234.835938 33.582031 224.242188 C 25.105469 213.652344 23.695312 188.9375 26.519531 186.820312 Z M 90.773438 193.175781 C 92.894531 193.882812 94.304688 196 94.304688 198.117188 C 94.304688 200.941406 91.480469 203.058594 88.65625 203.058594 C 85.832031 203.058594 83.714844 200.941406 83.714844 198.117188 C 83.714844 196.707031 84.417969 195.292969 85.832031 193.882812 C 85.832031 195.292969 87.246094 196 87.949219 196 C 90.070312 196 90.773438 195.292969 90.773438 193.882812 C 90.773438 193.175781 90.773438 193.175781 90.773438 193.175781 Z M 90.773438 193.175781 " fill-opacity="1" fill-rule="evenodd"/><path fill="#ffffff" d="M 301.195312 388.765625 C 241.175781 393.710938 203.75 349.222656 198.101562 287.085938 C 195.277344 258.84375 175.507812 275.082031 176.917969 291.324219 C 181.863281 378.175781 244.707031 422.660156 314.609375 420.539062 C 439.589844 417.011719 385.222656 203.765625 325.90625 144.453125 C 325.90625 144.453125 311.785156 169.875 291.308594 173.402344 C 270.125 176.226562 248.238281 156.457031 246.117188 111.972656 C 251.765625 148.691406 287.074219 189.644531 313.199219 145.867188 C 323.082031 128.917969 323.789062 109.148438 313.90625 100.675781 C 304.726562 92.203125 259.535156 64.664062 235.527344 70.3125 C 211.519531 75.960938 188.921875 95.027344 186.097656 107.03125 C 183.273438 120.445312 186.097656 126.09375 181.863281 135.980469 C 177.625 145.867188 166.328125 159.28125 155.738281 169.167969 C 169.859375 201.648438 183.273438 203.058594 215.050781 196 C 228.464844 193.175781 256.003906 208.003906 249.648438 251.074219 C 247.53125 263.785156 241.882812 275.082031 236.9375 286.378906 C 213.636719 339.339844 247.53125 379.585938 301.195312 388.765625 Z M 203.75 118.328125 C 205.871094 119.738281 207.988281 121.859375 207.988281 124.683594 C 207.988281 128.917969 204.457031 131.742188 200.925781 131.742188 C 196.691406 131.742188 193.867188 128.917969 193.867188 124.683594 C 193.867188 122.5625 195.277344 120.445312 196.691406 119.738281 C 196.691406 121.152344 198.101562 122.5625 200.222656 122.5625 C 202.339844 122.5625 203.75 120.445312 203.75 119.035156 C 203.75 118.328125 203.75 118.328125 203.75 118.328125 Z M 203.75 118.328125 " fill-opacity="1" fill-rule="evenodd"/></svg>