<svg width="35" height="35" viewBox="0 0 35 35" fill="none" xmlns="http://www.w3.org/2000/svg">
<path d="M18.531 3.34397L31.656 16.469C32.5748 17.3877 31.9244 18.9583 30.625 18.9583H29.1667V27.7083C29.1667 28.8687 28.7057 29.9815 27.8853 30.8019C27.0648 31.6224 25.952 32.0833 24.7917 32.0833H23.3333V21.875C23.3334 20.7591 22.907 19.6853 22.1415 18.8734C21.3759 18.0615 20.329 17.5728 19.215 17.5073L18.9583 17.5H16.0417C14.8814 17.5 13.7686 17.9609 12.9481 18.7814C12.1276 19.6019 11.6667 20.7147 11.6667 21.875V32.0833H10.2083C9.04802 32.0833 7.93522 31.6224 7.11475 30.8019C6.29428 29.9815 5.83334 28.8687 5.83334 27.7083V18.9583H4.37501C3.07709 18.9583 2.42521 17.3877 3.34396 16.469L16.469 3.34397C16.7424 3.07058 17.1133 2.91699 17.5 2.91699C17.8867 2.91699 18.2576 3.07058 18.531 3.34397ZM18.9583 20.4167C19.3451 20.4167 19.716 20.5703 19.9895 20.8438C20.263 21.1173 20.4167 21.4882 20.4167 21.875V32.0833H14.5833V21.875C14.5834 21.5178 14.7145 21.1731 14.9519 20.9061C15.1892 20.6392 15.5163 20.4687 15.871 20.4269L16.0417 20.4167H18.9583Z" fill="black"/>
</svg>
