<svg width="35" height="35" viewBox="0 0 35 35" fill="none" xmlns="http://www.w3.org/2000/svg">
<path d="M11.6667 13.125H23.3333M11.6667 18.9584H20.4167M26.25 5.83337C27.4103 5.83337 28.5231 6.29431 29.3436 7.11478C30.1641 7.93525 30.625 9.04805 30.625 10.2084V21.875C30.625 23.0354 30.1641 24.1482 29.3436 24.9686C28.5231 25.7891 27.4103 26.25 26.25 26.25H18.9583L11.6667 30.625V26.25H8.75C7.58968 26.25 6.47688 25.7891 5.65641 24.9686C4.83594 24.1482 4.375 23.0354 4.375 21.875V10.2084C4.375 9.04805 4.83594 7.93525 5.65641 7.11478C6.47688 6.29431 7.58968 5.83337 8.75 5.83337H26.25Z" stroke="black" stroke-width="2.91667" stroke-linecap="round" stroke-linejoin="round"/>
</svg>
