<svg width="27" height="32" viewBox="0 0 27 32" fill="none" xmlns="http://www.w3.org/2000/svg">
<path fill-rule="evenodd" clip-rule="evenodd" d="M2.82649 10.2083C2.82649 7.50092 3.90201 4.90439 5.81644 2.98995C7.73087 1.07552 10.3274 0 13.0348 0C15.7422 0 18.3388 1.07552 20.2532 2.98995C22.1676 4.90439 23.2432 7.50092 23.2432 10.2083V15.6975L25.9002 21.0117C26.0226 21.2563 26.0803 21.5281 26.068 21.8013C26.0557 22.0744 25.9738 22.34 25.83 22.5726C25.6862 22.8052 25.4854 22.9972 25.2465 23.1304C25.0077 23.2635 24.7387 23.3334 24.4652 23.3333H18.6844C18.36 24.5849 17.6292 25.6934 16.6067 26.4847C15.5841 27.276 14.3278 27.7053 13.0348 27.7053C11.7419 27.7053 10.4855 27.276 9.46298 26.4847C8.44045 25.6934 7.70963 24.5849 7.38524 23.3333H1.6044C1.33093 23.3334 1.06199 23.2635 0.823127 23.1304C0.58426 22.9972 0.383397 22.8052 0.239616 22.5726C0.0958345 22.34 0.0139092 22.0744 0.00162063 21.8013C-0.0106679 21.5281 0.0470885 21.2563 0.169404 21.0117L2.82649 15.6975V10.2083ZM10.509 23.3333C10.765 23.7767 11.1332 24.1448 11.5766 24.4008C12.0199 24.6568 12.5229 24.7915 13.0348 24.7915C13.5468 24.7915 14.0497 24.6568 14.4931 24.4008C14.9365 24.1448 15.3047 23.7767 15.5607 23.3333H10.509ZM13.0348 2.91667C11.101 2.91667 9.24629 3.68489 7.87883 5.05235C6.51138 6.4198 5.74315 8.27446 5.74315 10.2083V15.6975C5.74312 16.1501 5.63778 16.5964 5.43545 17.0013L3.7292 20.4167H22.3419L20.6357 17.0013C20.4328 16.5965 20.327 16.1502 20.3265 15.6975V10.2083C20.3265 8.27446 19.5583 6.4198 18.1908 5.05235C16.8234 3.68489 14.9687 2.91667 13.0348 2.91667Z" fill="black"/>
</svg>
