<svg width="35" height="35" viewBox="0 0 35 35" fill="none" xmlns="http://www.w3.org/2000/svg">
<path d="M33.2938 12.0313C32.9 10.9375 32.1563 10.15 31.2084 9.74169C29.5021 9.01252 27.4313 9.62502 25.8125 11.1709C25.9729 10.7479 26.1188 10.2959 26.25 9.8146C26.6146 7.84585 26.2938 5.8771 25.3459 4.55002C24.7188 3.64585 23.8146 3.0771 22.8084 2.91669C20.5625 2.59585 18.3313 4.49169 17.3979 7.29169C16.4646 4.44794 14.2042 2.56669 11.9438 2.91669C10.9375 3.09169 10.0334 3.6896 9.40628 4.60835C8.47294 5.9646 8.18128 7.86044 8.58961 9.82919C8.66253 10.2084 8.75003 10.5584 8.88128 10.8938C7.29169 9.56669 5.39586 9.04169 3.79169 9.74169C2.82919 10.1646 2.10003 10.9813 1.70628 12.0604C1.15794 13.5771 1.34169 15.4292 2.18753 17.1646C3.41253 19.5417 5.57086 21.0146 7.59794 21.0146C8.12294 21.0146 8.64794 20.9125 9.14378 20.7084C10.1063 20.2854 10.85 19.4688 11.2438 18.4188C11.7104 17.1938 11.6667 15.7063 11.1417 14.2334C11.9438 14.8604 12.8479 15.2396 13.7813 15.2396C13.9563 15.2396 14.1459 15.225 14.3209 15.1959C15.3125 15.05 16.2167 14.4667 16.8438 13.5625C17.0625 13.2417 17.2521 12.8917 17.3979 12.5125C17.5438 12.8917 17.7188 13.2417 17.9375 13.5479C18.5646 14.4521 19.4688 15.0354 20.475 15.1959C20.65 15.225 20.8396 15.2396 21.0146 15.2396C22.0646 15.2396 23.0854 14.7584 23.9604 13.9563C23.3334 15.5167 23.275 17.1063 23.7563 18.4188C24.15 19.4834 24.8938 20.2854 25.8563 20.7084C26.3521 20.9125 26.8771 21.0146 27.4167 21.0146C29.4292 21.0146 31.5875 19.5417 32.8125 17.1646C33.6584 15.4292 33.8479 13.5625 33.2938 12.0313ZM8.51669 17.3979C8.34169 17.8792 8.06461 17.9959 7.97711 18.025C7.17503 18.375 5.65836 17.5 4.81253 15.8521C4.22919 14.6709 4.24378 13.6354 4.44794 13.0375C4.56461 12.7313 4.73961 12.5125 4.95836 12.3959C5.10419 12.3959 5.22086 12.3375 5.36669 12.3375C6.21253 12.3375 7.43753 13.1688 8.16669 14.5834C8.64794 15.575 8.79378 16.6688 8.51669 17.3979ZM14.4521 11.9C14.2771 12.1334 14.0875 12.2792 13.8542 12.3084C13.125 12.3959 11.8709 11.2729 11.4479 9.24586C11.1563 7.84586 11.4479 6.79585 11.8125 6.25627C11.9875 6.00835 12.1917 5.83335 12.3959 5.83335C13.125 5.7021 14.4084 6.8396 14.8167 8.89585C15.1084 10.3104 14.8167 11.375 14.4521 11.9ZM23.3334 9.23127C22.925 11.2729 21.6271 12.3959 20.9125 12.3084C20.825 12.2938 20.5917 12.2646 20.3292 11.8854C19.9646 11.3604 19.6875 10.3104 19.9792 8.89585C20.3729 6.94169 21.5834 5.83335 22.2979 5.83335H22.4C22.6042 5.83335 22.7938 5.99377 22.9688 6.2271C23.4354 6.89794 23.5959 8.07919 23.3334 9.23127ZM30.1875 15.8521C29.3417 17.5 27.825 18.375 27.0229 18.025C26.9354 17.9959 26.6584 17.8792 26.4834 17.3979C26.25 16.6688 26.3521 15.575 26.8188 14.5834C27.5625 13.1834 28.8021 12.3521 29.6479 12.3521C29.7938 12.3521 29.8959 12.3959 30.0417 12.3959H30.0563C30.275 12.5125 30.4354 12.7167 30.5521 13.0375C30.7709 13.6209 30.7854 14.6709 30.1875 15.8521ZM23.7709 21.1459C21.8021 19.0313 20.2563 15.225 17.3396 15.225C14.4084 15.225 12.95 19.0896 10.8938 21.1459C9.34794 22.7354 6.73753 23.9021 6.47503 26.075C6.28544 27.65 7.29169 29.5459 8.75003 30.2604C9.26044 30.5229 9.80003 30.625 10.3542 30.625C12.5563 30.625 15.0209 28.9771 17.3396 28.9771C19.6875 28.9771 22.1375 30.5813 24.3688 30.5813C24.9084 30.5813 25.4334 30.4938 25.9438 30.2604C27.1979 29.6917 28.2479 28.175 28.1896 26.8042C28.0875 24.4271 25.3896 22.925 23.7709 21.1459ZM24.7334 27.6063C24.6174 27.6514 24.4931 27.6713 24.3688 27.6646C23.7563 27.6646 22.7938 27.3438 21.875 27.0375C20.5334 26.5854 19.0021 26.0604 17.3396 26.0604C15.6771 26.0604 14.1459 26.6 12.8042 27.0667C11.8854 27.3729 10.9375 27.7084 10.3542 27.7084C10.1646 27.7084 10.0917 27.7084 10.0334 27.6354C9.71253 27.475 9.33336 26.7896 9.37711 26.425C9.47919 26.0896 10.5438 25.2438 11.0688 24.7917C11.7104 24.325 12.3959 23.8146 12.9646 23.2021C13.7667 22.4 14.4229 21.4813 15.0646 20.5917C15.7209 19.6875 16.8146 18.1417 17.3396 18.1417C17.9229 18.1417 19.075 19.775 19.775 20.7375C20.3438 21.5542 20.9417 22.3854 21.6125 23.1146C22.1813 23.7271 22.7792 24.2667 23.3334 24.7917C24.1209 25.4479 25.2584 26.4542 25.2729 26.8917C25.2584 27.0959 24.9667 27.5042 24.7334 27.6063Z" fill="black"/>
</svg>
