<svg width="35" height="35" viewBox="0 0 35 35" fill="none" xmlns="http://www.w3.org/2000/svg">
<path fill-rule="evenodd" clip-rule="evenodd" d="M17.2622 32.0815L17.5 32.0834C17.178 32.0833 16.8562 32.0728 16.5349 32.0519C16.1373 32.0259 15.741 31.9837 15.3468 31.9255C14.8889 31.8577 14.4345 31.768 13.9852 31.657C13.5422 31.5473 13.1047 31.4168 12.674 31.2659L12.6716 31.265C11.9625 31.0163 11.2737 30.7128 10.6116 30.3572C10.1417 30.1049 9.68604 29.827 9.24663 29.5248C8.75249 29.185 8.27971 28.8151 7.83097 28.4173C7.67419 28.2784 7.52039 28.1361 7.36969 27.9906C4.62403 25.3385 2.91669 21.6187 2.91669 17.5C2.91669 9.4459 9.4459 2.91669 17.5 2.91669C19.4151 2.91668 21.3115 3.29388 23.0808 4.02676C24.8501 4.75963 26.4578 5.83383 27.812 7.18802C29.1662 8.5422 30.2404 10.1499 30.9733 11.9192C31.7062 13.6885 32.0834 15.5849 32.0834 17.5C32.0834 21.6188 30.3759 25.3388 27.6302 27.9907C27.6301 27.9909 27.6301 27.9912 27.6302 27.9915C26.9394 28.6583 26.1849 29.2556 25.3775 29.7749L25.3662 29.7821C25.1831 29.8997 24.9973 30.0131 24.809 30.1223L24.7892 30.1339C24.4598 30.3242 24.1231 30.5017 23.7799 30.6657C23.6456 30.7298 23.5103 30.7918 23.3742 30.852C23.2322 30.9144 23.0893 30.9747 22.9454 31.0328C22.806 31.0888 22.6657 31.1427 22.5247 31.1946C22.3821 31.2468 22.2388 31.2969 22.0947 31.3448C21.9531 31.3917 21.8108 31.4364 21.6678 31.4791C21.5163 31.5241 21.3642 31.5667 21.2114 31.6069C21.0626 31.6459 20.9133 31.6825 20.7635 31.7168C20.614 31.7509 20.4639 31.7827 20.3134 31.8122C19.6999 31.9321 19.0793 32.0124 18.4555 32.0525C18.3004 32.0626 18.1452 32.0702 17.9899 32.0753L17.9869 32.0754C17.7454 32.0833 17.5038 32.0853 17.2622 32.0815ZM18.9584 23.3334H16.0417C13.7186 23.3334 11.6869 24.7004 10.7529 26.6991L10.6473 26.9412L10.7387 27.0089C12.4009 28.1928 14.3868 28.952 16.5379 29.1276C16.6021 29.1328 16.6665 29.1375 16.731 29.1417L16.5468 29.1283C16.6095 29.1334 16.6723 29.138 16.7352 29.142L16.731 29.1417C16.7933 29.1458 16.8557 29.1494 16.9183 29.1525L16.7352 29.142C16.8001 29.1462 16.8653 29.1499 16.9306 29.153L16.9183 29.1525C16.9652 29.1547 17.012 29.1568 17.0589 29.1585L17.5 29.1667L17.6829 29.1653C17.7501 29.1643 17.8173 29.1627 17.8845 29.1605L17.6999 29.165C17.7622 29.164 17.8242 29.1625 17.8862 29.1604L17.8845 29.1605C17.947 29.1585 18.0094 29.156 18.0717 29.1529L17.8862 29.1604C17.9505 29.1583 18.0147 29.1557 18.0789 29.1525L18.0717 29.1529C18.1366 29.1498 18.2013 29.1461 18.2658 29.142L18.0789 29.1525C18.1421 29.1495 18.2053 29.1459 18.2683 29.1418L18.2659 29.1419C18.3291 29.1378 18.3921 29.1333 18.455 29.1282L18.2682 29.1418C18.3325 29.1376 18.3967 29.1329 18.4608 29.1277L18.455 29.1282C18.516 29.1232 18.577 29.1178 18.6378 29.1119L18.4608 29.1277C18.5246 29.1225 18.5883 29.1168 18.6518 29.1106L18.6378 29.1119C20.717 28.9107 22.6365 28.1637 24.2514 27.0159L24.3512 26.9412L24.2472 26.6994C23.3541 24.7875 21.4563 23.4534 19.2597 23.341L18.9584 23.3334ZM17.5 5.83338C11.0567 5.83338 5.83338 11.0567 5.83338 17.5C5.83338 20.2825 6.80743 22.8375 8.43315 24.8425C9.93897 22.1989 12.7822 20.4167 16.0417 20.4167H18.9584C22.218 20.4167 25.0612 22.199 26.5668 24.8423C28.1926 22.8375 29.1667 20.2825 29.1667 17.5C29.1667 11.0567 23.9433 5.83338 17.5 5.83338ZM17.5 7.29169C20.7217 7.29169 23.3334 9.90336 23.3334 13.125C23.3334 16.249 20.8776 18.7995 17.7911 18.9513L17.5 18.9584C14.2784 18.9584 11.6667 16.3467 11.6667 13.125C11.6667 10.001 14.1225 7.45049 17.2089 7.2988L17.5 7.29169ZM17.5 10.2084C15.8892 10.2084 14.5834 11.5142 14.5834 13.125C14.5834 14.7358 15.8892 16.0417 17.5 16.0417C19.1108 16.0417 20.4167 14.7358 20.4167 13.125C20.4167 11.5142 19.1108 10.2084 17.5 10.2084Z" fill="black"/>
</svg>
